<svg version="1.2" baseProfile="tiny" xmlns="http://www.w3.org/2000/svg" width="809.872" height="336.65" viewBox="0 0 809.872 336.65"><path fill="#FFF" d="M505.935 126.289c-17.436-9.498-34.788-18.571-50.692-30.549-21.407-16.123-41.355-34.866-65.201-47.438-2.85-1.502-5.376 2.813-2.523 4.317 23.364 12.318 43.138 30.544 63.994 46.521 16.218 12.424 34.016 21.725 51.899 31.467 2.832 1.541 5.355-2.776 2.523-4.318zM494.391 141.158c-19.005-10.675-35.395-23.887-52.482-37.272-20.233-15.849-44.199-25.981-63.58-42.944-2.415-2.114-5.966 1.408-3.535 3.535 19.411 16.99 43.296 27.144 63.58 42.944 17.467 13.606 34.101 27.161 53.494 38.054 2.814 1.581 5.334-2.739 2.523-4.317zM471.028 156.242c-16.732-11.814-27.505-29.504-44.213-41.265-10.764-7.576-22.356-14.061-33.237-21.515-11.04-7.563-22.102-15.087-33.867-21.495-2.832-1.542-5.355 2.775-2.523 4.317 11.764 6.408 22.828 13.931 33.867 21.495 10.898 7.468 22.327 14.1 33.237 21.514 8.251 5.607 14.81 12.877 21.294 20.36 6.854 7.91 14.359 14.861 22.919 20.905 2.64 1.866 5.134-2.473 2.523-4.316zM459.466 172.412c-5.848-1.333-11.461-3.248-15.888-7.443-3.317-3.144-5.251-7.501-7.176-11.562-2.006-4.23-4.145-8.309-6.985-12.048-3.863-5.085-8.933-8.765-13.984-12.574-6.374-4.808-12.953-9.337-19.832-13.393-6.198-3.653-12.785-6.602-19-10.237-11.06-6.469-19.244-15.202-26.055-25.987-1.716-2.718-6.044-.211-4.317 2.523 6.299 9.975 13.714 18.485 23.544 25.093 5.406 3.635 11.258 6.604 17.058 9.548 8.163 4.143 15.759 9.221 23.151 14.599 6.026 4.384 12.129 8.721 16.513 14.841 3.013 4.206 4.989 9.037 7.275 13.646 5.055 10.189 13.438 15.323 24.366 17.816 3.14.716 4.473-4.104 1.33-4.822zM446.833 189.416c-9.375-5.678-18.318-11.858-26.63-19.015-8.798-7.574-16.723-16.078-25.357-23.828-17.688-15.876-37.768-29.676-51.945-49.057-1.883-2.574-6.225-.083-4.317 2.523 14.445 19.749 34.605 33.983 52.727 50.069 8.678 7.703 16.613 16.189 25.356 23.827 8.566 7.483 17.925 13.911 27.643 19.796 2.765 1.676 5.275-2.648 2.523-4.315zM390 173.579c-28.4 1.685-55.185 12.348-83.454 14.497-26.16 1.989-52.457-1.238-78.603.969-3.188.27-3.215 5.271 0 5 26.141-2.207 52.433.812 78.603-.969 28.295-1.925 55.069-12.813 83.454-14.497 3.204-.19 3.222-5.191 0-5zM371.828 159.643c-28.777 6.573-58.506 9.484-87.872 11.94-29.106 2.435-58.682 4.415-87.888 2.699-3.222-.189-3.204 4.812 0 5 29.694 1.744 59.744-.346 89.334-2.82 29.315-2.451 59.03-5.437 87.755-11.998 3.143-.717 1.81-5.538-1.329-4.821zM352.908 146.59c-10.723-.825-21.238.692-31.778 2.531-5.958 1.039-11.909 2.281-17.96 2.581-6.414.317-12.853-.473-19.272-.378-12.655.188-25.451 1.887-38.103 2.562-27.711 1.48-55.496 2.832-83.25 3.121-3.222.034-3.226 5.034 0 5 27.754-.29 55.537-1.657 83.25-3.121 12.706-.671 25.401-1.996 38.103-2.562 5.77-.257 11.569.38 17.341.414 5.313.031 10.552-.94 15.769-1.836 11.939-2.051 23.733-4.248 35.901-3.311 3.216.246 3.192-4.756-.001-5.001zM333.213 134.468c-10.074-4.918-20.978-4.313-31.795-2.774-9.256 1.317-18.355 2.347-27.704 2.847-14.92.796-29.858 1.583-44.787 2.171-15.226.6-30.452 1.241-45.672 1.967-11.869.566-23.953.704-35.744 2.295-3.183.429-1.822 5.247 1.329 4.821 11.329-1.528 23.01-1.568 34.415-2.116 14.972-.72 29.948-1.344 44.925-1.938 13.776-.545 27.544-1.346 41.318-1.991 8.48-.397 16.985-.824 25.401-1.982 11.916-1.639 24.412-4.538 35.79 1.018 2.886 1.408 5.421-2.903 2.524-4.318zM325.692 114.042c-21.018-1.154-42.213-.697-63.199.83-13.913 1.012-27.688 3.315-41.576 4.638-16.432 1.564-32.89 2.877-49.353 4.053-12.462.891-25.096 2.154-37.604 1.928-3.226-.058-3.22 4.942 0 5 12.133.219 24.382-.998 36.472-1.848a2110.06 2110.06 0 0 0 50.485-4.133c13.408-1.267 26.706-3.451 40.126-4.527 21.438-1.719 43.17-2.12 64.648-.94 3.225.176 3.207-4.825.001-5.001z"/><g><path fill="#FFF" d="M316.369 94.705c10.324-10.4 23.336-17.554 34.092-27.463 6.248-5.755 12.001-12.133 17.884-18.252 13.814-14.37 27.465-28.897 41.321-43.227 2.241-2.317-1.291-5.856-3.535-3.535-13.585 14.048-26.975 28.285-40.509 42.381a1479.332 1479.332 0 0 1-17.58 18.024c-10.678 10.751-24.515 17.764-35.208 28.537-2.273 2.289 1.261 5.826 3.535 3.535zM294.435 97.8c9.137-10.365 20.476-18.445 29.66-28.759 5.97-6.704 11.133-13.984 17.293-20.575 7.361-7.875 14.938-15.548 22.357-23.368 5.518-5.815 11.337-11.663 15.85-18.323 1.814-2.677-2.52-5.176-4.317-2.523-4.491 6.627-10.412 12.403-15.901 18.189-7.142 7.527-14.421 14.924-21.524 22.489-5.805 6.184-10.841 12.755-16.195 19.291-9.108 11.118-21.262 19.27-30.758 30.043-2.124 2.409 1.399 5.959 3.535 3.536zM348.153 4.965c-.991 2.506-3.409 4.734-5.171 6.69-3.035 3.368-6.263 6.564-9.496 9.74-6.634 6.518-13.494 12.797-20.225 19.213-8.059 7.682-14.688 16.579-20.802 25.86-6.769 10.277-12.411 23.536-22.808 30.731-2.632 1.821-.135 6.158 2.523 4.317 10.104-6.994 16.143-18.991 22.472-29.175 6.329-10.184 13.477-19.892 22.15-28.199 6.989-6.693 14.128-13.225 21.032-20.007 5.166-5.075 12.404-10.913 15.145-17.843 1.189-2.999-3.648-4.289-4.82-1.327zM323.144 3.921c-15.055 14.421-31.026 27.722-42.083 45.69-2.717 4.416-4.659 9.23-7.409 13.623-2.894 4.622-6.427 8.84-9.921 13.012-6.148 7.34-12.95 14.331-18.128 22.422-1.744 2.725 2.586 5.229 4.317 2.523 5.208-8.139 12.121-15.172 18.307-22.558 3.181-3.797 6.246-7.697 9.033-11.793 2.864-4.209 4.796-8.931 7.31-13.343 10.455-18.35 27.093-31.657 42.109-46.042 2.333-2.233-1.208-5.764-3.535-3.534zM284.848 9.341c-2.249 7.03-6.844 13.479-10.863 19.585-5.745 8.729-11.91 17.181-18.081 25.611-4.956 6.771-10.032 13.465-14.786 20.381-8.179 11.898-17.866 22.157-27.856 32.531-2.236 2.322 1.295 5.861 3.535 3.535 9.915-10.294 19.991-20.485 27.905-32.457 4.64-7.019 9.822-13.699 14.796-20.48 6.422-8.755 12.799-17.549 18.804-26.597 4.295-6.472 8.979-13.313 11.367-20.78.986-3.079-3.842-4.387-4.821-1.329z"/></g><g><path fill="#FFF" d="M96.69 118.596c13.702-2.834 27.087-7.032 40.863-9.499 8.231-1.474 16.495-2.037 24.768-3.078 8.272-1.042 16.053-4.209 24.297-5.269 3.152-.405 3.192-5.41 0-5-7.94 1.021-15.519 3.656-23.386 5.115-8.373 1.553-17.063 1.765-25.5 3.152-14.312 2.352-28.177 6.822-42.371 9.758-3.156.653-1.817 5.472 1.329 4.821zM210.076 70.998c-23.175 8-48.452 9.064-72.519 12.872-22.419 3.547-43.373 13.679-65.833 17.062-3.18.479-1.824 5.296 1.329 4.821 22.105-3.329 42.854-12.807 64.813-16.885 24.409-4.534 49.892-4.885 73.538-13.048 3.03-1.047 1.728-5.878-1.328-4.822zM229.102 46.815c-18.168 7.42-37.955 10.444-57.091 14.31-13.688 2.765-27.014 6.663-40.573 9.921-14.115 3.393-28.312 6.46-42.533 9.37-11.144 2.279-22.613 5.167-33.999 5.903-3.201.207-3.221 5.208 0 5 11.085-.716 22.215-3.435 33.072-5.624a1301.407 1301.407 0 0 0 43.888-9.612c13.36-3.177 26.479-7.062 39.947-9.827 19.634-4.03 39.961-7 58.618-14.62 2.944-1.202 1.657-6.041-1.329-4.821zM247.102 22.736c-22.579.142-44.897 8.356-66.094 15.298-16.333 5.349-32.548 10.114-49.327 13.76-28.905 6.281-57.645 13.292-86.517 19.716-3.147.7-1.812 5.521 1.329 4.821 28.38-6.315 56.639-13.164 85.038-19.393a475.631 475.631 0 0 0 46.465-12.659c22.125-7.248 45.521-16.395 69.106-16.543 3.223-.02 3.225-5.02 0-5zM252.044.136C230.815 7.06 208.728 11.039 187.5 17.933c-13.894 4.512-28.057 7.155-42.231 10.55-32.262 7.729-64.381 16.045-96.586 24.003-6.654 1.644-13.317 3.486-20.057 4.752-3.167.595-1.822 5.413 1.329 4.821 9.863-1.853 19.612-4.633 29.344-7.057 16.958-4.223 33.904-8.496 50.86-12.729 14.692-3.667 29.382-7.357 44.132-10.79 3.548-.826 7.113-1.727 10.716-2.29 12.768-1.994 24.876-7.01 37.328-10.352 17.012-4.565 34.282-8.421 51.038-13.887 3.051-.992 1.745-5.821-1.329-4.818z"/></g><g><path fill="#FFF" d="M531.819 112.508c-12.1 25.882-31.961 48.058-51.339 68.753-7.364 7.865-14.863 15.604-22.216 23.48-5.88 6.301-12.205 12.61-17.041 19.783-1.808 2.682 2.526 5.181 4.318 2.523 4.814-7.143 11.238-13.392 17.094-19.665 7.276-7.797 14.702-15.454 21.991-23.239 19.426-20.747 39.382-43.169 51.509-69.112 1.358-2.902-2.952-5.442-4.316-2.523zM556.028 113.873c-27.29 36.284-54.121 73.189-84.008 107.408-2.111 2.417 1.41 5.968 3.535 3.535 30.165-34.537 57.246-71.798 84.789-108.42 1.941-2.579-2.404-5.066-4.316-2.523zM579.802 119.009c-2.243 5.578-7.629 7.666-11.369 12.027-4.386 5.113-8.244 10.896-12.187 16.358-4.171 5.78-8.038 11.76-11.442 18.024-2.001 3.681-3.828 7.159-6.354 10.522-6.094 8.116-13.326 15.424-20.156 22.911-5.727 6.277-12.131 12.693-16.262 20.197-1.557 2.826 2.762 5.349 4.316 2.523 4.137-7.514 10.624-13.861 16.359-20.148 6.848-7.507 13.86-14.896 20.06-22.959 2.554-3.321 4.42-6.826 6.354-10.522 3.579-6.838 7.981-13.229 12.491-19.478 4.064-5.631 8.098-12.305 13.313-16.908 4.188-3.694 7.512-5.784 9.698-11.218 1.206-2.993-3.632-4.281-4.821-1.329z"/><g><path fill="#FFF" d="M606.278 118.028c-22.613 33.816-55.673 60.438-74.459 96.889-1.475 2.86 2.839 5.391 4.316 2.523 18.777-36.433 51.847-63.073 74.459-96.889 1.799-2.688-2.534-5.188-4.316-2.523z"/></g><g><path fill="#FFF" d="M565.004 218.476c9.597-17.261 22.846-32.312 34.561-48.125 9.424-12.722 15.945-27.216 25.619-39.684 1.951-2.514-1.561-6.08-3.535-3.535-9.641 12.424-16.227 26.739-25.502 39.471-11.895 16.327-25.607 31.628-35.459 49.349-1.568 2.82 2.75 5.342 4.316 2.524z"/></g></g><g><path fill="#FFF" d="M.791 154.56c10.168 9.294 22.393 16.446 34.183 23.443 16.781 9.958 33.98 19.207 51.175 28.425 17.617 9.443 35.306 18.756 52.82 28.39 13.458 7.402 27.101 14.828 39.623 23.765 2.63 1.877 5.124-2.462 2.523-4.318-11.891-8.486-24.808-15.567-37.571-22.632-17.403-9.634-35.01-18.894-52.548-28.277-17.317-9.266-34.615-18.589-51.559-28.525-12.076-7.082-24.724-14.312-35.11-23.805-2.375-2.172-5.921 1.354-3.536 3.534zM18.418 138.83c6.911 3.427 13.117 8.699 19.211 13.357 7.321 5.596 14.516 11.361 21.637 17.209 7.647 6.281 15.464 10.985 24.524 15.064 9.106 4.1 18.258 7.816 26.871 12.908 27.417 16.212 55.4 31.601 82.313 48.645.615.39 1.225.785 1.832 1.187 2.697 1.786 5.199-2.546 2.523-4.316-26.322-17.425-54.449-32.382-81.658-48.367-16.668-9.792-36.313-14.906-51.281-27.344-13.078-10.867-26.399-22.207-40.854-31.21a30.747 30.747 0 0 0-2.594-1.449c-2.879-1.429-5.413 2.883-2.524 4.316zM32.779 121.058c10.095 8.21 21.248 15.178 32.198 22.167 16.281 10.392 32.797 20.415 49.342 30.379 30.573 18.415 61.498 36.261 91.895 54.965a469.258 469.258 0 0 1 7.03 4.401c2.725 1.744 5.229-2.585 2.523-4.316-27.491-17.597-55.999-33.673-84.009-50.419-30.295-18.112-61.316-35.784-89.935-56.509a123.314 123.314 0 0 1-5.508-4.204c-2.479-2.015-6.039 1.5-3.536 3.536z"/><g><path fill="#FFF" d="M241.06 224.65c-23.169-15.842-47.638-29.964-71.513-44.699-27.662-17.073-55.557-33.862-82.709-51.741-4.53-2.983-8.854-6.276-13.431-9.182-11.489-7.294-24.356-12.413-34.44-21.776-2.359-2.19-5.903 1.337-3.535 3.535 9.592 8.907 21.539 14.352 32.725 20.902 5.439 3.185 10.434 7.049 15.686 10.527 11.437 7.573 23.108 14.799 34.745 22.058 30.744 19.175 61.663 38.066 92.429 57.205 9.22 5.735 18.554 11.358 27.521 17.488 2.668 1.826 5.166-2.51 2.522-4.317z"/></g></g><g><path fill="#FFF" d="M189.052 275.034c7.146-.729 14.6-6.188 20.653-9.633 10.53-5.991 20.841-12.371 31.116-18.788 8.558-5.345 17.083-10.695 25.767-15.839 8.991-5.326 17.784-10.936 26.688-16.393 8.197-5.023 16.879-9.155 24.534-15.034 2.52-1.935.035-6.281-2.523-4.316-7.189 5.521-15.271 9.612-23.076 14.164-8.4 4.898-16.491 10.354-24.863 15.318-9.239 5.478-18.361 11.088-27.46 16.788-9.618 6.026-19.285 11.98-29.09 17.698-4.4 2.565-8.837 5.072-13.359 7.418-2.417 1.254-5.933 3.365-8.386 3.616-3.176.325-3.208 5.328-.001 5.001z"/></g><g><path fill="#FFF" d="M225.268 283.916c19.694-11.357 37.93-25.724 56.234-39.14a3527.847 3527.847 0 0 0 25.883-19.165c13.13-9.812 27.023-18.621 39.683-29.051 2.491-2.052-1.068-5.568-3.535-3.535-12.521 10.314-26.295 19.021-39.284 28.726a3531.79 3531.79 0 0 1-26.27 19.44c-17.974 13.174-35.896 27.256-55.234 38.408-2.792 1.61-.275 5.931 2.523 4.317z"/></g><g><path fill="#FFF" d="M249.26 292.513c5.49-7.413 14.692-12.721 22.204-17.784 10.479-7.064 21.252-13.688 31.928-20.447 25.184-15.948 46.859-36.344 70.484-54.453 2.521-1.934.036-6.28-2.523-4.318-16.152 12.381-31.885 25.284-47.42 38.428-7.755 6.561-16.472 11.859-25.042 17.277-11.005 6.959-22.084 13.812-32.839 21.156-7.373 5.034-15.721 10.343-21.108 17.618-1.923 2.594 2.42 5.083 4.316 2.523z"/></g><g><path fill="#FFF" d="M272.176 305.953c9.306-5.329 17.644-12.726 25.886-19.518 9.788-8.064 19.399-16.35 28.898-24.752 4.695-4.152 9.283-8.407 14.109-12.41 7.596-6.301 14.639-13.071 22.043-19.559 13.84-12.125 30.947-19.775 43.375-33.633 2.146-2.393-1.378-5.94-3.535-3.535-11.637 12.975-27.383 20.848-40.896 31.57-7.156 5.678-13.387 12.464-20.458 18.283-5.774 4.752-11.351 9.681-16.935 14.649a1120.57 1120.57 0 0 1-28.194 24.242c-8.525 7.091-17.152 14.81-26.816 20.343-2.797 1.603-.279 5.925 2.523 4.32z"/></g><g><path fill="#FFF" d="M304.909 312.516c20.15-18.911 42.773-35.019 63.961-52.716 10.175-8.498 20.114-17.36 28.999-27.22 7.666-8.506 17.032-15.254 23.995-24.456 1.946-2.573-2.398-5.06-4.318-2.523-6.952 9.189-16.475 15.969-24.143 24.478-8.932 9.911-19.105 18.7-29.329 27.239-20.771 17.35-42.944 33.121-62.7 51.663-2.355 2.21 1.187 5.739 3.535 3.535z"/></g><g><path fill="#FFF" d="M647.782 297.77c-25.23-.439-49.652 7.125-74.81 7.088-23.227-.033-46.217-4.674-69.447-4.531-3.224.02-3.226 5.02 0 5 23.226-.143 46.227 4.289 69.447 4.531 25.151.263 49.586-7.527 74.81-7.088 3.226.056 3.22-4.945 0-5zM632.609 284.265c-25.395 3.757-51.396 4.271-77.023 4.464-26.103.195-52.643-.002-78.55-3.543-3.152-.431-4.512 4.387-1.33 4.822 25.905 3.539 52.322 3.847 78.426 3.729 26.566-.12 53.486-.757 79.808-4.65 3.179-.471 1.822-5.288-1.331-4.822zM617.521 271.468c-9.554-1.466-18.976-.959-28.556-.043-4.969.476-9.942 1.083-14.938 1.104-5.479.023-10.957-1.064-16.4-1.563-11.344-1.04-23.129-.185-34.526-.45-25.051-.583-50.162-1.308-75.168-2.983-3.221-.216-3.199 4.785 0 5 24.198 1.622 48.491 2.313 72.732 2.925 11.103.28 22.191.334 33.296.318 4.869-.007 9.747.886 14.576 1.408 4.986.538 9.864.229 14.842-.22 10.948-.986 21.856-2.356 32.812-.674 3.153.483 4.509-4.334 1.33-4.822zM600.456 259.271c-8.239-4.815-17.639-5.207-26.948-4.655-8.181.485-16.192.896-24.401.72-13.374-.287-26.771-.637-40.139-1.147a4988.523 4988.523 0 0 0-39.631-1.376c-10.933-.332-22.061-1.123-32.996-.513-3.206.179-3.223 5.18 0 5 10.191-.569 20.553.147 30.741.445 13.23.387 26.458.86 39.684 1.359 12.259.463 24.527.7 36.791 1.082 7.688.239 15.432.516 23.113-.016 10.585-.731 21.657-2.196 31.263 3.417 2.789 1.632 5.304-2.691 2.523-4.316zM595.04 240.753c-18.519-2.459-37.299-3.51-55.973-3.601-12.373-.06-24.718 1.034-37.091 1.25-14.591.254-29.188.284-43.781.196-11.073-.067-22.321.177-33.359-.874-3.21-.306-3.181 4.697 0 5 10.666 1.016 21.527.788 32.229.866 14.97.11 29.943.06 44.912-.188 11.892-.197 23.747-1.209 35.637-1.251 19.14-.068 38.451 1.082 57.427 3.602 3.187.424 3.147-4.582-.001-5z"/><g><path fill="#FFF" d="M674.686 179.8c8.611 15.361 19.363 29.651 29.853 43.756 11.794 15.859 23.948 31.562 37.118 46.312 9.271 10.384 19.822 19.604 29.957 29.122 11.464 10.768 24.35 21.278 34.139 33.659 1.999 2.528 5.512-1.035 3.535-3.535-9.317-11.785-21.536-21.804-32.439-32.062-10.23-9.625-20.904-18.928-30.386-29.312-13.464-14.747-25.678-30.713-37.606-46.707-10.506-14.087-21.244-28.399-29.854-43.756-1.577-2.813-5.896-.293-4.317 2.523zM650.542 190.47c20.765 23.618 39.99 48.637 59.778 73.067 19.874 24.538 39.353 50.215 61.921 72.387 2.301 2.261 5.838-1.272 3.535-3.535-22.255-21.865-41.474-47.164-61.083-71.354-20.078-24.767-39.559-50.149-60.616-74.101-2.133-2.425-5.656 1.125-3.535 3.536zM637.668 199.617c5.57 11.914 15.155 22.583 23.159 32.905 11.154 14.386 23.807 27.298 33.517 42.792 6.657 10.623 17.343 19.359 26.252 28.004 8.849 8.587 19.579 17.109 26.377 27.518 1.755 2.688 6.086.185 4.316-2.523-6.622-10.142-16.756-18.443-25.379-26.805-9.254-8.971-20.082-17.891-27.249-28.717-5.624-8.494-11.329-16.562-17.969-24.317-5.067-5.919-10.233-11.677-15.03-17.817-8.193-10.488-18.001-21.423-23.678-33.562-1.363-2.92-5.673-.379-4.316 2.522z"/><g><path fill="#FFF" d="M615.069 212.343c15.665 19.996 33.3 38.49 50.153 57.472 17.175 19.344 35.602 38.81 49.2 60.937 1.686 2.741 6.011.231 4.318-2.523-13.339-21.703-31.3-40.842-48.115-59.841-17.445-19.711-35.777-38.845-52.021-59.579-1.987-2.538-5.499 1.027-3.535 3.534z"/></g><g><path fill="#FFF" d="M696.637 329.074c-13.023-19.711-30.55-36.705-46.166-54.323-7.463-8.419-15.041-16.863-21.349-26.202-8.768-12.98-13.741-28.125-24.245-39.982-2.142-2.418-5.665 1.131-3.535 3.535 10.496 11.849 15.556 27.265 24.34 40.27 5.76 8.527 12.752 16.264 19.535 23.971 15.836 17.992 33.846 35.191 47.104 55.256 1.768 2.675 6.099.174 4.316-2.525z"/></g></g></g></svg>