<?xml version="1.0" encoding="utf-8"?>
<!-- Generator: Adobe Illustrator 18.0.0, SVG Export Plug-In . SVG Version: 6.00 Build 0)  -->
<!DOCTYPE svg PUBLIC "-//W3C//DTD SVG 1.1//EN" "http://www.w3.org/Graphics/SVG/1.1/DTD/svg11.dtd">
<svg version="1.1" id="Layer_1" xmlns="http://www.w3.org/2000/svg" xmlns:xlink="http://www.w3.org/1999/xlink" x="0px" y="0px"
	 viewBox="0 0 96 56" enable-background="new 0 0 96 56" xml:space="preserve">
<g transform="translate(0,-952.36218)">
	<path fill="#FFFFFF" d="M86,952.4c1.1,0,2,0.9,2,2s-0.9,2-2,2H30.1l-10.4,16.1c-0.2,0.4-0.6,0.6-1,0.8L4,978.7v19.6h6.1
		c0.5-4.5,4.3-8,8.9-8s8.4,3.5,8.9,8h32.1c0.5-4.5,4.3-8,8.9-8c4.6,0,8.4,3.5,8.9,8H84v-12c0-1.1,0.9-2,2-2s2,0.9,2,2v14
		c0,1-1,2-2,2h-8.5c-1.2,3.5-4.6,6-8.5,6c-3.9,0-7.2-2.5-8.5-6H27.5c-1.2,3.5-4.6,6-8.5,6s-7.2-2.5-8.5-6H2c-1,0-2-1-2-2v-23
		c0-0.8,0.5-1.6,1.3-1.9l15.3-5.8l10.7-16.5c0.4-0.6,1-0.9,1.7-0.9L86,952.4z M94,960.4c1.1,0,2,0.9,2,2s-0.9,2-2,2H66
		c-1.1,0-2-0.9-2-2s0.9-2,2-2H94z M92,968.4c1.1,0,2,0.9,2,2s-0.9,2-2,2H66c-1.1,0-2-0.9-2-2s0.9-2,2-2H92z M88,976.4
		c1.1,0,2,0.9,2,2c0,1.1-0.9,2-2,2H66c-1.1,0-2-0.9-2-2c0-1.1,0.9-2,2-2H88z M69,994.4c-2.8,0-5,2.2-5,5c0,2.8,2.2,5,5,5s5-2.2,5-5
		C74,996.6,71.8,994.4,69,994.4z M19,994.4c-2.8,0-5,2.2-5,5c0,2.8,2.2,5,5,5s5-2.2,5-5C24,996.6,21.8,994.4,19,994.4z"/>
</g>
</svg>
