<?xml version="1.0" encoding="utf-8"?>
<!-- Generator: Adobe Illustrator 18.0.0, SVG Export Plug-In . SVG Version: 6.00 Build 0)  -->
<!DOCTYPE svg PUBLIC "-//W3C//DTD SVG 1.1//EN" "http://www.w3.org/Graphics/SVG/1.1/DTD/svg11.dtd">
<svg version="1.1" id="Layer_1" xmlns="http://www.w3.org/2000/svg" xmlns:xlink="http://www.w3.org/1999/xlink" x="0px" y="0px"
	 viewBox="256.5 257.8 54.5 52.1" enable-background="new 256.5 257.8 54.5 52.1" xml:space="preserve">
<g>
	<path fill="#E71B47" d="M268.7,283.7c0-1.1-0.9-1.9-1.9-1.9c-1,0-1.9,0.9-1.9,1.9c0,1.1,0.9,1.9,1.9,1.9
		C267.8,285.6,268.7,284.8,268.7,283.7z"/>
	<path fill="#E71B47" d="M277.1,269.1c0-1.1-0.9-1.9-1.9-1.9c-1.1,0-1.9,0.9-1.9,1.9c0,1.1,0.9,1.9,1.9,1.9
		C276.2,271.1,277.1,270.2,277.1,269.1z"/>
	<path fill="#E71B47" d="M293.9,269.1c0-1.1-0.9-1.9-1.9-1.9c-1,0-1.9,0.9-1.9,1.9c0,1.1,0.9,1.9,1.9,1.9
		C293,271,293.9,270.2,293.9,269.1z"/>
	<path fill="#E71B47" d="M302.3,283.7c0-1.1-0.9-1.9-1.9-1.9s-1.9,0.9-1.9,1.9c0,1.1,0.9,1.9,1.9,1.9S302.3,284.8,302.3,283.7z"/>
	<path fill="#E71B47" d="M293.9,298.3c0-1.1-0.9-1.9-1.9-1.9c-1,0-1.9,0.9-1.9,1.9c0,1.1,0.9,1.9,1.9,1.9
		C293,300.2,293.9,299.3,293.9,298.3z"/>
	<path fill="#E71B47" d="M277.1,298.3c0-1.1-0.9-1.9-1.9-1.9c-1.1,0-1.9,0.9-1.9,1.9c0,1.1,0.9,1.9,1.9,1.9
		C276.2,300.2,277.1,299.3,277.1,298.3z"/>
	<path fill="#E71B47" d="M286.4,283.7c0-1.6-1.3-2.9-2.9-2.9c-1.6,0-2.9,1.3-2.9,2.9s1.3,2.9,2.9,2.9
		C285.1,286.6,286.4,285.3,286.4,283.7z"/>
	<path fill="#E71B47" d="M294.4,278.8c0-1.3-1.1-2.4-2.4-2.4c-1.3,0-2.4,1.1-2.4,2.4c0,1.3,1.1,2.4,2.4,2.4
		C293.3,281.2,294.4,280.2,294.4,278.8z"/>
	<path fill="#E71B47" d="M286,274c0-1.3-1.1-2.4-2.4-2.4s-2.4,1.1-2.4,2.4s1.1,2.4,2.4,2.4S286,275.3,286,274z"/>
	<path fill="#E71B47" d="M277.6,278.8c0-1.3-1.1-2.4-2.4-2.4s-2.4,1.1-2.4,2.4c0,1.3,1.1,2.4,2.4,2.4
		C276.5,281.3,277.6,280.2,277.6,278.8z"/>
	<path fill="#E71B47" d="M294.4,288.5c0-1.3-1.1-2.4-2.4-2.4c-1.3,0-2.4,1.1-2.4,2.4s1.1,2.4,2.4,2.4
		C293.3,290.9,294.4,289.9,294.4,288.5z"/>
	<path fill="#E71B47" d="M286,293.4c0-1.3-1.1-2.4-2.4-2.4s-2.4,1.1-2.4,2.4c0,1.3,1.1,2.4,2.4,2.4S286,294.7,286,293.4z"/>
	<path fill="#E71B47" d="M277.6,288.5c0-1.3-1.1-2.4-2.4-2.4s-2.4,1.1-2.4,2.4s1.1,2.4,2.4,2.4C276.5,291,277.6,289.9,277.6,288.5z"
		/>
	<path fill="#E71B47" d="M268.2,293.4c0-0.8-0.7-1.5-1.5-1.5c-0.8,0-1.5,0.7-1.5,1.5c0,0.8,0.7,1.5,1.5,1.5
		C267.5,294.9,268.2,294.2,268.2,293.4z"/>
	<path fill="#E71B47" d="M285,303.1c0-0.8-0.7-1.5-1.5-1.5c-0.8,0-1.5,0.7-1.5,1.5c0,0.8,0.7,1.5,1.5,1.5
		C284.3,304.6,285,303.9,285,303.1z"/>
	<path fill="#E71B47" d="M268.2,274c0-0.8-0.7-1.5-1.5-1.5c-0.8,0-1.5,0.7-1.5,1.5c0,0.8,0.7,1.5,1.5,1.5
		C267.5,275.5,268.2,274.8,268.2,274z"/>
	<path fill="#E71B47" d="M285,264.3c0-0.8-0.7-1.5-1.5-1.5c-0.8,0-1.5,0.7-1.5,1.5c0,0.8,0.7,1.5,1.5,1.5
		C284.3,265.7,285,265.1,285,264.3z"/>
	<path fill="#E71B47" d="M301.8,274c0-0.8-0.7-1.5-1.5-1.5c-0.8,0-1.5,0.7-1.5,1.5c0,0.8,0.7,1.5,1.5,1.5
		C301.1,275.5,301.8,274.8,301.8,274z"/>
	<path fill="#E71B47" d="M301.8,293.4c0-0.8-0.7-1.5-1.5-1.5c-0.8,0-1.5,0.7-1.5,1.5c0,0.8,0.7,1.5,1.5,1.5
		C301.1,294.9,301.8,294.2,301.8,293.4z"/>
	<path fill="#E71B47" d="M267.7,303.1c0-0.5-0.4-1-1-1c-0.6,0-1,0.4-1,1c0,0.6,0.4,1,1,1C267.3,304.1,267.7,303.6,267.7,303.1z"/>
	<path fill="#E71B47" d="M276.1,308c0-0.5-0.4-1-1-1c-0.5,0-1,0.4-1,1s0.4,1,1,1C275.7,308.9,276.1,308.5,276.1,308z"/>
	<path fill="#E71B47" d="M259.3,278.8c0-0.5-0.4-1-1-1s-1,0.4-1,1s0.4,1,1,1S259.3,279.4,259.3,278.8z"/>
	<path fill="#E71B47" d="M259.3,288.5c0-0.5-0.4-1-1-1c-0.5,0-1,0.4-1,1c0,0.5,0.4,1,1,1S259.3,289.1,259.3,288.5z"/>
	<path fill="#E71B47" d="M276.1,259.4c0-0.5-0.4-1-1-1c-0.5,0-1,0.4-1,1s0.4,1,1,1S276.1,260,276.1,259.4z"/>
	<path fill="#E71B47" d="M267.7,264.3c0-0.5-0.4-1-1-1c-0.6,0-1,0.4-1,1c0,0.5,0.4,1,1,1C267.3,265.3,267.7,264.8,267.7,264.3z"/>
	<path fill="#E71B47" d="M309.7,288.5c0-0.5-0.4-1-1-1c-0.5,0-1,0.4-1,1c0,0.5,0.4,1,1,1C309.3,289.5,309.7,289.1,309.7,288.5z"/>
	<path fill="#E71B47" d="M309.7,278.8c0-0.5-0.4-1-1-1c-0.5,0-1,0.4-1,1s0.4,1,1,1C309.3,279.8,309.7,279.4,309.7,278.8z"/>
</g>
</svg>
