<?xml version="1.0" encoding="utf-8"?>
<!-- Generator: Adobe Illustrator 18.0.0, SVG Export Plug-In . SVG Version: 6.00 Build 0)  -->
<!DOCTYPE svg PUBLIC "-//W3C//DTD SVG 1.1//EN" "http://www.w3.org/Graphics/SVG/1.1/DTD/svg11.dtd">
<svg version="1.1" id="Layer_1" xmlns="http://www.w3.org/2000/svg" xmlns:xlink="http://www.w3.org/1999/xlink" x="0px" y="0px"
	 viewBox="274.3 260.1 18.3 48.4" enable-background="new 274.3 260.1 18.3 48.4" xml:space="preserve">
<g>
	<path fill="#E71B47" d="M292.1,261.4c-0.3-0.1-0.6,0-0.8,0.2l-12.3,8.8c-0.1,0.1-0.2,0.3-0.2,0.5v6.6v0.6v12v1.7v5.2
		c0,0.2,0.1,0.4,0.2,0.5l12.3,8.8c0.1,0.1,0.3,0.2,0.5,0.2c0.1,0,0.2,0,0.3,0c0.3-0.1,0.5-0.4,0.5-0.7v-43.7
		C292.5,261.8,292.4,261.6,292.1,261.4z M291.1,304l-10.8-7.3v-5V290v-12v-0.6v-6.3l10.8-7.3V304z"/>
</g>
<path fill="#E71B47" d="M287.6,260.1c-0.3-0.1-0.6,0-0.8,0.2l-12.3,8.8c-0.1,0.1-0.2,0.3-0.2,0.5v8l0,0v14.3l0,0v6.6
	c0,0.2,0.1,0.4,0.2,0.5l12.3,8.8c0.1,0.1,0.3,0.2,0.5,0.2c0.1,0,0.2,0,0.3,0c0.3-0.1,0.5-0.4,0.5-0.7v-46.5
	C288.1,260.5,287.9,260.2,287.6,260.1z M286.6,305.4l-10.8-7.3v-6.3l0,0v-14.3l0,0v-7.7l10.8-7.3V305.4z"/>
</svg>
