<?xml version="1.0" encoding="utf-8"?>
<!-- Generator: Adobe Illustrator 18.0.0, SVG Export Plug-In . SVG Version: 6.00 Build 0)  -->
<!DOCTYPE svg PUBLIC "-//W3C//DTD SVG 1.1//EN" "http://www.w3.org/Graphics/SVG/1.1/DTD/svg11.dtd">
<svg version="1.1" id="Layer_1" xmlns="http://www.w3.org/2000/svg" xmlns:xlink="http://www.w3.org/1999/xlink" x="0px" y="0px"
	 viewBox="0 0 52.2 48.1" enable-background="new 0 0 52.2 48.1" xml:space="preserve">
<g>
	<path fill="#E71B47" d="M52.2,47c0,0.5-0.4,0.9-0.9,0.9h-0.9c-1.4,0-2.7-0.5-3.7-1.5l-2-2c-1.3-1.3-3.6-1.3-4.9,0l-2,2
		c-1,1-2.3,1.5-3.7,1.5s-2.7-0.5-3.7-1.5l-2-2c-1.3-1.3-3.6-1.3-4.9,0l-2,2c-1,1-2.3,1.5-3.7,1.5s-2.7-0.5-3.7-1.5l-2-2
		c-1.3-1.3-3.6-1.3-4.9,0l-2,2c-1,1-2.3,1.5-3.7,1.5H0.9C0.4,47.9,0,47.5,0,47c0-0.5,0.4-0.9,0.9-0.9h0.9c0.9,0,1.8-0.4,2.4-1l2-2
		c2-2,5.4-2,7.4,0l2,2c1.3,1.3,3.6,1.3,4.9,0l2-2c1-1,2.3-1.5,3.7-1.5c1.4,0,2.7,0.5,3.7,1.5l2,2c1.3,1.3,3.6,1.3,4.9,0l2-2
		c2-2,5.4-2,7.4,0l2,2c0.7,0.7,1.5,1,2.4,1h0.9C51.8,46.1,52.2,46.5,52.2,47z M0.9,28.8h0.9c1.4,0,2.7-0.5,3.7-1.5l2-2
		c1.3-1.3,3.6-1.3,4.9,0l2,2c1,1,2.3,1.5,3.7,1.5s2.7-0.5,3.7-1.5l2-2c1.3-1.3,3.6-1.3,4.9,0l2,2c1,1,2.3,1.5,3.7,1.5
		s2.7-0.5,3.7-1.5l2-2c1.3-1.3,3.6-1.3,4.9,0l2,2c1,1,2.3,1.5,3.7,1.5h0.9c0.5,0,0.9-0.4,0.9-0.9c0-0.5-0.4-0.9-0.9-0.9h-0.9
		c-0.9,0-1.8-0.4-2.4-1l-2-2c-2-2-5.4-2-7.4,0l-2,2c-1.3,1.3-3.6,1.3-4.9,0l-2-2c-1-1-2.3-1.5-3.7-1.5c-1.4,0-2.7,0.5-3.7,1.5l-2,2
		c-1.3,1.3-3.6,1.3-4.9,0l-2-2c-2-2-5.4-2-7.4,0l-2,2c-0.7,0.7-1.5,1-2.4,1H0.9C0.4,27,0,27.4,0,27.9C0,28.4,0.4,28.8,0.9,28.8z
		 M0.9,14.4h18.9c4,0,7.2-3.2,7.2-7.2S23.8,0,19.8,0s-7.2,3.2-7.2,7.2c0,0.5,0.4,0.9,0.9,0.9s0.9-0.4,0.9-0.9c0-3,2.4-5.4,5.4-5.4
		s5.4,2.4,5.4,5.4s-2.4,5.4-5.4,5.4H0.9C0.4,12.6,0,13,0,13.5S0.4,14.4,0.9,14.4z M0.9,18h38.7c5,0,9-4,9-9s-4-9-9-9s-9,4-9,9
		c0,0.5,0.4,0.9,0.9,0.9s0.9-0.4,0.9-0.9c0-4,3.2-7.2,7.2-7.2S46.8,5,46.8,9s-3.2,7.2-7.2,7.2H0.9c-0.5,0-0.9,0.4-0.9,0.9
		C0,17.6,0.4,18,0.9,18z"/>
	<circle fill="#E71B47" cx="9.8" cy="30.7" r="1.6"/>
	<circle fill="#E71B47" cx="16.1" cy="37.2" r="1.6"/>
	<circle fill="#E71B47" cx="24" cy="30.7" r="1.6"/>
	<circle fill="#E71B47" cx="2.8" cy="38.8" r="1.6"/>
</g>
</svg>
