<?xml version="1.0" encoding="utf-8"?>
<!-- Generator: Adobe Illustrator 18.0.0, SVG Export Plug-In . SVG Version: 6.00 Build 0)  -->
<!DOCTYPE svg PUBLIC "-//W3C//DTD SVG 1.1//EN" "http://www.w3.org/Graphics/SVG/1.1/DTD/svg11.dtd">
<svg version="1.1" id="Layer_1" xmlns="http://www.w3.org/2000/svg" xmlns:xlink="http://www.w3.org/1999/xlink" x="0px" y="0px"
	 viewBox="245.8 253.5 75.7 60.8" enable-background="new 245.8 253.5 75.7 60.8" xml:space="preserve">
<path fill="#E71B47" d="M312.7,295.5h8.8L305.8,278h-44.3l-15.7,17.5h8.8l-8.8,9.8h8.1l-8.1,9h75.7l-8.1-9h8.1L312.7,295.5z
	 M263,279.9h41.2l12.3,13.7h-65.8L263,279.9z M257.8,295.5h51.6l7.1,7.9h-65.8L257.8,295.5z M316.5,312.4h-65.8l6.4-7.1h53
	L316.5,312.4z"/>
<g transform="translate(0,-288.53332)">
	<path fill="#E71B47" d="M265.4,576.2l4.3-25c0.1-0.6,0.7-1.1,1.3-1.1h25.1c0.7,0,1.2,0.5,1.3,1.1l4.3,25c0.1,0.7-0.4,1.4-1.1,1.6
		c-0.1,0-0.2,0-0.2,0h-33.7c-0.7,0-1.3-0.6-1.3-1.3C265.4,576.4,265.4,576.3,265.4,576.2z"/>
	<path fill="#E71B47" d="M283.6,542c-3,0-5.4,2.4-5.4,5.4c0,0.5,0.1,0.9,0.2,1.3h2.8c-0.2-0.4-0.4-0.9-0.4-1.3
		c0-1.5,1.2-2.7,2.7-2.7c1.5,0,2.7,1.2,2.7,2.7c0,0.5-0.1,1-0.4,1.3h2.8c0.1-0.4,0.2-0.9,0.2-1.3C289,544.5,286.6,542,283.6,542z"/>
</g>
<g>
	<g>
		<path fill="#FFFFFF" d="M278.1,275.4V270c-0.1,0-0.1,0.1-0.2,0.1c-0.2,0.1-0.5,0.2-1,0.3v-1c0.1,0,0.2,0,0.3-0.1
			c0.1,0,0.6-0.3,1-0.6c0.1-0.1,0.2-0.2,0.4-0.5h1v7.2H278.1z"/>
		<path fill="#FFFFFF" d="M285.6,274.5c-0.4,1-1.7,1-1.9,1c-0.1,0-1,0-1.5-0.3c-0.6-0.4-0.6-1.1-0.6-1.3v-0.7h1.4v0.7
			c0,0,0,0.2,0,0.3c0,0.1,0.2,0.3,0.6,0.3s0.6-0.2,0.6-0.3s0.1-0.2,0.1-0.3v-1.8c0-0.3,0-0.6-0.3-0.7c-0.1,0-0.2-0.1-0.4-0.1
			c-0.2,0-0.5,0.1-0.7,0.4c0,0.1-0.1,0.1-0.1,0.3h-1.1l0.1-3.8h3.8v1.1h-2.7v1.5c0.2-0.1,0.6-0.4,1.2-0.4c1,0,1.4,0.6,1.5,0.9
			c0.1,0.2,0.1,0.3,0.1,0.7v1.8C285.7,274.1,285.6,274.3,285.6,274.5z"/>
		<path fill="#FFFFFF" d="M290.5,274.4c-0.1,0.3-0.3,0.9-1.2,1.1c-0.1,0-0.4,0.1-0.8,0.1c-0.6,0-1.2-0.1-1.6-0.5
			c-0.1-0.1-0.3-0.2-0.4-0.5c-0.1-0.2-0.1-0.4-0.1-0.8V270c0-0.1,0-0.2,0-0.3c0-0.4,0.1-0.7,0.3-1c0.5-0.6,1.5-0.6,1.7-0.6
			c1.2,0,1.8,0.5,2,1c0.1,0.2,0.1,0.4,0.1,0.8v3.9C290.6,274,290.6,274.2,290.5,274.4z M289.1,269.9c0,0,0-0.3,0-0.5
			c-0.1-0.2-0.3-0.3-0.6-0.3c-0.7,0-0.7,0.6-0.7,0.8v4c0,0.2,0,0.7,0.6,0.7c0.2,0,0.3-0.1,0.4-0.1c0.3-0.2,0.3-0.4,0.3-0.7
			L289.1,269.9L289.1,269.9z"/>
		<path fill="#FFFFFF" d="M282.6,282.7l-1.3-2.9v2.9h-1v-6.4h1v2.9l1-2.9h1l-1.2,3.2l1.4,3.2L282.6,282.7L282.6,282.7z"/>
		<path fill="#FFFFFF" d="M286.3,282.7l-0.1-0.3c-0.1,0.2-0.4,0.4-0.9,0.4c-0.1,0-0.5,0-0.8-0.2c-0.5-0.3-0.5-0.8-0.5-1.3V278
			c0-0.5,0-0.8,0.1-1c0.1-0.3,0.4-0.8,1.3-0.8c0.2,0,0.7,0,1.1,0.4c0.2,0.2,0.2,0.4,0.2,1v0.7h-0.9v-0.7c0-0.1,0-0.1,0-0.2
			s0-0.5-0.4-0.4c-0.1,0-0.2,0-0.3,0.1c-0.2,0.1-0.2,0.4-0.2,0.6v3.7c0,0.3,0,0.5,0.1,0.6c0,0.1,0.2,0.2,0.4,0.2
			c0.1,0,0.2,0,0.3-0.1c0.2-0.1,0.2-0.3,0.2-0.5V280h-0.6v-0.8h1.5v3.4h-0.5V282.7z"/>
	</g>
</g>
</svg>
